<svg width="97" height="10" viewBox="0 0 97 10" fill="none" xmlns="http://www.w3.org/2000/svg">
<path d="M7.04272 4.95099C7.04272 6.37879 6.60352 7.45358 5.72637 8.17537C4.91391 8.84135 3.7593 9.17495 2.26379 9.17495C1.52225 9.17495 0.887714 9.14341 0.356445 9.08033V1.27899C1.04946 1.16981 1.79597 1.11401 2.60221 1.11401C4.0268 1.11401 5.10054 1.41606 5.82466 2.02018C6.63587 2.70315 7.04272 3.67968 7.04272 4.95099ZM5.66789 4.98617C5.66789 4.06059 5.41657 3.35093 4.91391 2.85599C4.41126 2.36227 3.67719 2.1148 2.71045 2.1148C2.29987 2.1148 1.95025 2.14149 1.66036 2.19729V8.12806C1.82086 8.15232 2.11449 8.16324 2.54124 8.16324C3.53908 8.16324 4.30924 7.89272 4.8517 7.35168C5.39417 6.81065 5.66789 6.02214 5.66789 4.98617Z" fill="white"/>
<path d="M14.3324 6.19804C14.3324 7.07752 14.0749 7.79809 13.5598 8.36339C13.0198 8.94446 12.3044 9.23438 11.4111 9.23438C10.5501 9.23438 9.86454 8.95659 9.35317 8.39857C8.84306 7.84177 8.588 7.13939 8.588 6.29266C8.588 5.40711 8.85052 4.68047 9.37805 4.11639C9.90559 3.5523 10.6148 3.26965 11.5081 3.26965C12.3691 3.26965 13.0609 3.54745 13.5847 4.10426C14.0823 4.64529 14.3324 5.34403 14.3324 6.19804ZM12.98 6.23928C12.98 5.71159 12.863 5.25911 12.6304 4.88184C12.3566 4.42572 11.9672 4.19766 11.4608 4.19766C10.937 4.19766 10.5389 4.42572 10.2652 4.88184C10.0313 5.25911 9.91555 5.71887 9.91555 6.26233C9.91555 6.79002 10.0325 7.2425 10.2652 7.61977C10.5476 8.07589 10.9408 8.30395 11.4484 8.30395C11.9461 8.30395 12.3367 8.07225 12.6179 7.60764C12.8593 7.22309 12.98 6.76697 12.98 6.23928Z" fill="white"/>
<path d="M24.1067 3.38611L22.2716 9.10458H21.0772L20.317 6.6214C20.1241 6.00152 19.9673 5.38527 19.8454 4.77388H19.8218C19.7085 5.40225 19.5518 6.01729 19.3502 6.6214L18.5427 9.10458H17.3346L15.609 3.38611H16.9489L17.6121 6.10463C17.7726 6.74756 17.9045 7.36017 18.0102 7.94002H18.0339C18.1309 7.46207 18.2914 6.8531 18.5179 6.11676L19.3502 3.38732H20.4128L21.2103 6.05853C21.4031 6.70996 21.5599 7.33712 21.6806 7.94124H21.7167C21.805 7.35289 21.9381 6.72573 22.1148 6.05853L22.8265 3.38732H24.1067V3.38611Z" fill="white"/>
<path d="M30.8664 9.1046H29.5625V5.82927C29.5625 4.81998 29.1693 4.31534 28.3805 4.31534C27.9936 4.31534 27.6813 4.45363 27.4387 4.73143C27.1986 5.00922 27.0766 5.33676 27.0766 5.7116V9.10338H25.7727V5.02014C25.7727 4.51793 25.7566 3.97325 25.7255 3.38369H26.8713L26.9323 4.27774H26.9684C27.1202 3.99994 27.3466 3.77067 27.644 3.58749C27.9973 3.37399 28.393 3.26602 28.826 3.26602C29.3734 3.26602 29.8288 3.43828 30.1908 3.78401C30.6412 4.20738 30.8664 4.83939 30.8664 5.67885V9.1046Z" fill="white"/>
<path d="M34.4621 9.10458H33.1595V0.762207H34.4621V9.10458Z" fill="white"/>
<path d="M42.1388 6.19804C42.1388 7.07752 41.8812 7.79809 41.3661 8.36339C40.8262 8.94446 40.1095 9.23438 39.2174 9.23438C38.3552 9.23438 37.6697 8.95659 37.1595 8.39857C36.6494 7.84177 36.3944 7.13939 36.3944 6.29266C36.3944 5.40711 36.6569 4.68047 37.1844 4.11639C37.712 3.5523 38.4212 3.26965 39.3132 3.26965C40.1755 3.26965 40.866 3.54745 41.391 4.10426C41.8887 4.64529 42.1388 5.34403 42.1388 6.19804ZM40.7851 6.23928C40.7851 5.71159 40.6682 5.25911 40.4355 4.88184C40.163 4.42572 39.7723 4.19766 39.2672 4.19766C38.7421 4.19766 38.344 4.42572 38.0715 4.88184C37.8376 5.25911 37.7219 5.71887 37.7219 6.26233C37.7219 6.79002 37.8389 7.2425 38.0715 7.61977C38.354 8.07589 38.7471 8.30395 39.2548 8.30395C39.7524 8.30395 40.1419 8.07225 40.423 7.60764C40.6657 7.22309 40.7851 6.76697 40.7851 6.23928Z" fill="white"/>
<path d="M48.4493 9.10458H47.2785L47.1815 8.44588H47.1454C46.7448 8.97115 46.1737 9.23438 45.4321 9.23438C44.8785 9.23438 44.4306 9.06091 44.0934 8.7164C43.7873 8.40342 43.6343 8.01402 43.6343 7.55184C43.6343 6.8531 43.9329 6.32056 44.5338 5.95178C45.1335 5.583 45.9771 5.40225 47.0633 5.41075V5.304C47.0633 4.55067 46.6577 4.17462 45.8452 4.17462C45.2667 4.17462 44.7566 4.31655 44.3161 4.59798L44.0511 3.76338C44.5961 3.43463 45.2692 3.26965 46.063 3.26965C47.5958 3.26965 48.3647 4.05816 48.3647 5.63517V7.74108C48.3647 8.31244 48.3933 8.76735 48.4493 9.10458ZM47.0956 7.13939V6.25748C45.6573 6.23322 44.9382 6.61776 44.9382 7.40991C44.9382 7.70833 45.0203 7.93153 45.1883 8.08074C45.3563 8.22995 45.5703 8.30395 45.8253 8.30395C46.1115 8.30395 46.379 8.21539 46.6228 8.0395C46.8679 7.86239 47.0185 7.63797 47.0745 7.3626C47.0882 7.30073 47.0956 7.22552 47.0956 7.13939Z" fill="white"/>
<path d="M55.8584 9.10458H54.7014L54.6404 8.18628H54.6043C54.2348 8.88501 53.6052 9.23438 52.7206 9.23438C52.0139 9.23438 51.4254 8.96387 50.9588 8.42283C50.4923 7.88179 50.2596 7.17942 50.2596 6.31692C50.2596 5.39133 50.5122 4.64165 51.0198 4.06907C51.5113 3.53532 52.1134 3.26844 52.8301 3.26844C53.6177 3.26844 54.1688 3.52682 54.4824 4.04481H54.5072V0.762207H55.8124V7.56397C55.8124 8.12077 55.8273 8.6339 55.8584 9.10458ZM54.5072 6.69297V5.73949C54.5072 5.57451 54.4948 5.44107 54.4712 5.33917C54.3978 5.03347 54.2398 4.7763 53.9996 4.56886C53.757 4.36143 53.4646 4.2571 53.1274 4.2571C52.641 4.2571 52.2603 4.44513 51.9803 4.8224C51.7029 5.19967 51.5623 5.68126 51.5623 6.26961C51.5623 6.8349 51.6954 7.29345 51.9629 7.64646C52.2453 8.02251 52.626 8.21054 53.1026 8.21054C53.5306 8.21054 53.8727 8.05405 54.1328 7.73986C54.3841 7.44994 54.5072 7.10057 54.5072 6.69297Z" fill="white"/>
<path d="M67.0101 6.19804C67.0101 7.07752 66.7526 7.79809 66.2375 8.36339C65.6975 8.94446 64.9833 9.23438 64.0888 9.23438C63.229 9.23438 62.5435 8.95659 62.0309 8.39857C61.5208 7.84177 61.2657 7.13939 61.2657 6.29266C61.2657 5.40711 61.5282 4.68047 62.0558 4.11639C62.5833 3.5523 63.2925 3.26965 64.187 3.26965C65.0468 3.26965 65.7398 3.54745 66.2624 4.10426C66.76 4.64529 67.0101 5.34403 67.0101 6.19804ZM65.6589 6.23928C65.6589 5.71159 65.542 5.25911 65.3093 4.88184C65.0343 4.42572 64.6462 4.19766 64.1385 4.19766C63.616 4.19766 63.2178 4.42572 62.9429 4.88184C62.7089 5.25911 62.5932 5.71887 62.5932 6.26233C62.5932 6.79002 62.7102 7.2425 62.9429 7.61977C63.2253 8.07589 63.6185 8.30395 64.1261 8.30395C64.6238 8.30395 65.0157 8.07225 65.2969 7.60764C65.537 7.22309 65.6589 6.76697 65.6589 6.23928Z" fill="white"/>
<path d="M74.0211 9.1046H72.7184V5.82927C72.7184 4.81998 72.3253 4.31534 71.5352 4.31534C71.1483 4.31534 70.836 4.45363 70.5946 4.73143C70.3532 5.00922 70.2326 5.33676 70.2326 5.7116V9.10338H68.9274V5.02014C68.9274 4.51793 68.9125 3.97325 68.8814 3.38369H70.026L70.087 4.27774H70.1231C70.2761 3.99994 70.5025 3.77067 70.7987 3.58749C71.1532 3.37399 71.5477 3.26602 71.9819 3.26602C72.5281 3.26602 72.9834 3.43828 73.3455 3.78401C73.7971 4.20738 74.0211 4.83939 74.0211 5.67885V9.1046Z" fill="white"/>
<path d="M82.7964 4.33839H81.3606V7.11635C81.3606 7.82236 81.6156 8.17537 82.1208 8.17537C82.3547 8.17537 82.5488 8.15596 82.7018 8.11593L82.7354 9.08033C82.4779 9.17495 82.1394 9.22226 81.7226 9.22226C81.2075 9.22226 80.8069 9.06941 80.517 8.76371C80.2259 8.45802 80.0816 7.94367 80.0816 7.22188V4.33839H79.2243V3.38612H80.0816V2.33801L81.3593 1.96196V3.3849H82.7951V4.33839H82.7964Z" fill="white"/>
<path d="M89.6991 9.10458H88.394V5.85352C88.394 4.82846 88.0008 4.31533 87.2132 4.31533C86.6085 4.31533 86.1955 4.61253 85.969 5.20694C85.9305 5.33189 85.9081 5.48474 85.9081 5.66428V9.10337H84.6054V0.762207H85.9081V4.20858H85.933C86.3435 3.58141 86.932 3.26844 87.6947 3.26844C88.2347 3.26844 88.6814 3.44069 89.036 3.78642C89.4777 4.21707 89.6991 4.85758 89.6991 5.70431V9.10458Z" fill="white"/>
<path d="M96.8196 5.97482C96.8196 6.20288 96.8022 6.39455 96.7711 6.55104H92.8606C92.878 7.11633 93.0646 7.54698 93.4267 7.8454C93.7576 8.11228 94.1844 8.24572 94.707 8.24572C95.2855 8.24572 95.813 8.15595 96.2883 7.9752L96.4924 8.85832C95.9362 9.09366 95.2818 9.21133 94.5241 9.21133C93.6158 9.21133 92.9004 8.95052 92.3828 8.42889C91.8627 7.90727 91.6052 7.20732 91.6052 6.32904C91.6052 5.46654 91.8453 4.7484 92.3293 4.17582C92.8344 3.56443 93.5175 3.25873 94.3797 3.25873C95.2233 3.25873 95.864 3.56443 96.297 4.17582C96.6466 4.66105 96.8196 5.26153 96.8196 5.97482ZM95.5754 5.64608C95.5853 5.26881 95.4995 4.9437 95.3228 4.66955C95.0964 4.31654 94.7517 4.13943 94.2852 4.13943C93.8597 4.13943 93.5125 4.31169 93.2475 4.65742C93.031 4.93279 92.9029 5.26153 92.8606 5.64608H95.5754Z" fill="white"/>
</svg>
